<?xml version="1.0" encoding="utf-8"?>
<!-- Generator: Adobe Illustrator 21.1.0, SVG Export Plug-In . SVG Version: 6.00 Build 0)  -->
<svg version="1.1" id="Layer_1" xmlns="http://www.w3.org/2000/svg" xmlns:xlink="http://www.w3.org/1999/xlink" x="0px" y="0px"
	 viewBox="0 0 457.3 243.4" style="enable-background:new 0 0 457.3 243.4;" xml:space="preserve">
<style type="text/css">
	.st0{fill:#818181;}
	.st1{fill:#F15C22;}
	.st2{fill:#818182;}
	.st3{fill:none;stroke:#F15C22;stroke-width:2;stroke-linecap:round;stroke-miterlimit:10;}
</style>
<path class="st0" d="M3.5,46.4h8.7c6.1,0,8.7,2.7,8.7,6.5c0,3.4-2.3,5.4-5,6V59c3.2,0.6,5.9,2.7,5.9,6.3c0,3.9-2.5,7-8.8,7H3.5V46.4
	z M12,58.2c4.4,0,7.1-1.6,7.1-5.1c0-3.5-2.2-5-7-5H5.2v10.2H12z M13.1,70.7c4.8,0,6.9-2,6.9-5.4c0-3.8-3-5.5-7.8-5.5h-7v10.9H13.1z"
	/>
<path class="st0" d="M26.7,53.9h1.7v3.9h0.1c1.5-2.4,3.9-4.2,7.6-4.2h0.5l-0.3,1.6h-0.6c-3.1,0-5.7,1.8-7.2,5.1v12.1h-1.7V53.9z"/>
<path class="st0" d="M40.4,47.1h1.8v2.1h-1.8V47.1z M40.5,53.9h1.7v18.4h-1.7V53.9z"/>
<path class="st0" d="M48.3,53.9h1.7v3c2-1.9,4.4-3.4,7.1-3.4c3.8,0,5.6,2.1,5.6,5.4v13.3h-1.7V59.2c0-2.8-1.2-4.2-4-4.2
	c-2.6,0-4.7,1.3-7,3.5v13.8h-1.7V53.9z"/>
<path class="st0" d="M66.3,74.7c0-1.9,1.3-3.4,3.5-4.3c-1.2-0.5-1.8-1.2-1.8-2.4c0-1,0.8-1.9,2.1-2.5c-1.7-1.1-2.7-3-2.7-5.3
	c0-4,3.2-6.7,7-6.7c2,0,3.8,0.7,5.1,1.9c1.1-0.7,2.7-1.4,4.2-1.6v1.8c-1.2,0-2.5,0.2-3.4,0.7c0.8,1.1,1.3,2.3,1.3,3.9
	c0,4.1-3.3,6.5-7,6.5c-1.1,0-2.2-0.2-3.2-0.6c-1,0.4-1.6,0.9-1.6,1.7c0,0.8,0.7,1.3,2.9,1.5l4.3,0.4c3.8,0.4,6.1,1.8,6.1,4.6
	c0,3.2-3.4,5-8.2,5C69.1,79.3,66.3,77.6,66.3,74.7z M81.4,74.5c0-1.9-1.6-2.9-5.2-3.3l-3.8-0.3c-0.3,0-0.6-0.1-0.9-0.1
	c-2.4,0.7-3.6,2.2-3.6,3.8c0,2,2.1,3.4,7.1,3.4C79,77.9,81.4,76.5,81.4,74.5z M79.9,60.2c0-3.2-2-5.2-5.4-5.2
	c-3.3,0-5.4,2.1-5.4,5.2c0,3,2.2,5.1,5.4,5.1S79.9,63.3,79.9,60.2z"/>
<path class="st0" d="M87.9,47.1h1.8v2.1h-1.8V47.1z M88,53.9h1.7v18.4H88V53.9z"/>
<path class="st0" d="M95.7,53.9h1.7v3c2-1.9,4.4-3.4,7.1-3.4c3.8,0,5.6,2.1,5.6,5.4v13.3h-1.7V59.2c0-2.8-1.2-4.2-4-4.2
	c-2.6,0-4.7,1.3-7,3.5v13.8h-1.7V53.9z"/>
<path class="st0" d="M113.7,74.7c0-1.9,1.3-3.4,3.5-4.3c-1.2-0.5-1.8-1.2-1.8-2.4c0-1,0.8-1.9,2.1-2.5c-1.7-1.1-2.7-3-2.7-5.3
	c0-4,3.2-6.7,7-6.7c2,0,3.8,0.7,5.1,1.9c1.1-0.7,2.7-1.4,4.2-1.6v1.8c-1.2,0-2.5,0.2-3.4,0.7c0.8,1.1,1.3,2.3,1.3,3.9
	c0,4.1-3.3,6.5-7,6.5c-1.1,0-2.2-0.2-3.2-0.6c-1,0.4-1.6,0.9-1.6,1.7c0,0.8,0.7,1.3,2.9,1.5l4.3,0.4c3.8,0.4,6.1,1.8,6.1,4.6
	c0,3.2-3.4,5-8.2,5C116.6,79.3,113.7,77.6,113.7,74.7z M128.9,74.5c0-1.9-1.6-2.9-5.2-3.3l-3.8-0.3c-0.3,0-0.6-0.1-0.9-0.1
	c-2.4,0.7-3.6,2.2-3.6,3.8c0,2,2.1,3.4,7.1,3.4C126.5,77.9,128.9,76.5,128.9,74.5z M127.4,60.2c0-3.2-2-5.2-5.4-5.2
	c-3.3,0-5.4,2.1-5.4,5.2c0,3,2.2,5.1,5.4,5.1S127.4,63.3,127.4,60.2z"/>
<path class="st0" d="M142.9,47.1h1.8v2.1h-1.8V47.1z M143,53.9h1.7v18.4H143V53.9z"/>
<path class="st0" d="M150.7,53.9h1.7v3c2-1.9,4.4-3.4,7.1-3.4c3.8,0,5.6,2.1,5.6,5.4v13.3h-1.7V59.2c0-2.8-1.2-4.2-4-4.2
	c-2.6,0-4.7,1.3-7,3.5v13.8h-1.7V53.9z"/>
<path class="st0" d="M170.8,53.9h1.7v3c2-1.9,4.4-3.4,7.1-3.4c3.8,0,5.6,2.1,5.6,5.4v13.3h-1.7V59.2c0-2.8-1.2-4.2-4-4.2
	c-2.6,0-4.7,1.3-7,3.5v13.8h-1.7V53.9z"/>
<path class="st0" d="M189.8,63.1c0-5.9,3.5-9.6,8.1-9.6c4.5,0,8.1,3.7,8.1,9.6c0,5.8-3.6,9.6-8.1,9.6S189.8,69,189.8,63.1z
	 M204.3,63.1c0-4.3-2.2-8.1-6.4-8.1c-4,0-6.4,3.5-6.4,8.1c0,4.3,2.2,8.1,6.4,8.1C201.8,71.2,204.3,67.8,204.3,63.1z"/>
<path class="st0" d="M208.1,53.9h1.9l5.8,16.3h0.1l5.8-16.3h1.8l-6.8,18.5h-1.7L208.1,53.9z"/>
<path class="st0" d="M225.7,68.1c0-3.5,3-6.1,12.6-7.7v-1.1c0-2.8-1.5-4.2-4-4.2c-3,0-5.1,1.2-7.1,3l-1-1c2.3-2.1,4.6-3.5,8.2-3.5
	c3.8,0,5.6,2.2,5.6,5.6v8.6c0,2.2,0.1,3.6,0.5,4.6h-1.8c-0.2-0.8-0.4-1.7-0.4-2.7c-2.2,1.9-4.7,3-7.5,3
	C227.5,72.6,225.7,70.9,225.7,68.1z M238.4,67.9v-6.3c-9,1.6-11,3.8-11,6.4c0,2.1,1.4,3.2,3.6,3.2C233.8,71.2,236.2,70,238.4,67.9z"
	/>
<path class="st0" d="M246.9,68.2V55.4h-3.2v-1.5h3.2v-6.7h1.7v6.7h4.8v1.5h-4.8V68c0,2,0.7,3.1,3,3.1c0.7,0,1.4-0.1,1.9-0.2v1.6
	c-0.6,0.1-1.3,0.2-2.1,0.2C248.4,72.6,246.9,71.3,246.9,68.2z"/>
<path class="st0" d="M258.1,47.1h1.8v2.1h-1.8V47.1z M258.2,53.9h1.7v18.4h-1.7V53.9z"/>
<path class="st0" d="M264.9,63.1c0-5.9,3.5-9.6,8.1-9.6c4.5,0,8.1,3.7,8.1,9.6c0,5.8-3.6,9.6-8.1,9.6S264.9,69,264.9,63.1z
	 M279.4,63.1c0-4.3-2.2-8.1-6.4-8.1c-4,0-6.4,3.5-6.4,8.1c0,4.3,2.2,8.1,6.4,8.1C276.9,71.2,279.4,67.8,279.4,63.1z"/>
<path class="st0" d="M285.9,53.9h1.7v3c2-1.9,4.4-3.4,7.1-3.4c3.8,0,5.6,2.1,5.6,5.4v13.3h-1.7V59.2c0-2.8-1.2-4.2-4-4.2
	c-2.6,0-4.7,1.3-7,3.5v13.8h-1.7V53.9z"/>
<path class="st0" d="M314.7,68.2V55.4h-3.2v-1.5h3.2v-6.7h1.7v6.7h4.8v1.5h-4.8V68c0,2,0.7,3.1,3,3.1c0.7,0,1.4-0.1,1.9-0.2v1.6
	c-0.6,0.1-1.3,0.2-2.1,0.2C316.2,72.6,314.7,71.3,314.7,68.2z"/>
<path class="st0" d="M324.3,63.1c0-5.9,3.5-9.6,8.1-9.6c4.5,0,8.1,3.7,8.1,9.6c0,5.8-3.6,9.6-8.1,9.6S324.3,69,324.3,63.1z
	 M338.8,63.1c0-4.3-2.2-8.1-6.4-8.1c-4,0-6.4,3.5-6.4,8.1c0,4.3,2.2,8.1,6.4,8.1C336.4,71.2,338.8,67.8,338.8,63.1z"/>
<path class="st0" d="M353,47.1h1.8v2.1H353V47.1z M353.1,53.9h1.7v18.4h-1.7V53.9z"/>
<path class="st0" d="M362.1,68.2V55.4h-3.2v-1.5h3.2v-6.7h1.7v6.7h4.8v1.5h-4.8V68c0,2,0.7,3.1,3,3.1c0.7,0,1.4-0.1,1.9-0.2v1.6
	c-0.6,0.1-1.3,0.2-2.1,0.2C363.5,72.6,362.1,71.3,362.1,68.2z"/>
<path class="st0" d="M371.5,69.2l1.2-0.9c1.4,1.8,3.1,2.9,5.7,2.9c3.5,0,5.3-1.4,5.3-3.6s-1.3-3.2-5.5-4.2c-4.7-1.2-6.2-2.4-6.2-5.2
	c0-2.3,2.1-4.6,6.1-4.6c3,0,5,1.1,6.5,2.7l-1.1,1.2c-1.4-1.5-3-2.4-5.4-2.4c-3,0-4.3,1.5-4.3,3c0,1.9,1,2.8,4.7,3.6
	c5.2,1.3,7,2.5,7,5.8c0,3.2-2.8,5.1-7,5.1C375.2,72.6,372.9,71.2,371.5,69.2z"/>
<path class="st0" d="M1.7,115.2l1.2-0.9c1.4,1.8,3.1,2.9,5.7,2.9c3.5,0,5.3-1.4,5.3-3.6s-1.3-3.2-5.5-4.2c-4.7-1.2-6.2-2.4-6.2-5.2
	c0-2.3,2.1-4.6,6.1-4.6c3,0,5,1.1,6.5,2.7l-1.1,1.2c-1.4-1.5-3-2.4-5.4-2.4c-3,0-4.3,1.5-4.3,3c0,1.9,1.1,2.8,4.7,3.6
	c5.2,1.3,7,2.5,7,5.8c0,3.2-2.8,5.1-7,5.1C5.3,118.6,3,117.2,1.7,115.2z"/>
<path class="st0" d="M21.3,114.2v-12.8h-3.2v-1.5h3.2v-6.7H23v6.7h4.8v1.5H23V114c0,2,0.7,3.1,3,3.1c0.7,0,1.4-0.1,1.9-0.2v1.6
	c-0.6,0.1-1.3,0.2-2.1,0.2C22.8,118.6,21.3,117.3,21.3,114.2z"/>
<path class="st0" d="M31.1,114.1c0-3.5,3-6.1,12.6-7.7v-1.1c0-2.8-1.5-4.2-4-4.2c-3,0-5.1,1.2-7.1,3l-1-1c2.3-2.1,4.6-3.5,8.2-3.5
	c3.8,0,5.6,2.2,5.6,5.6v8.6c0,2.2,0.1,3.6,0.5,4.6h-1.8c-0.2-0.8-0.4-1.7-0.4-2.7c-2.2,1.9-4.7,3-7.5,3
	C32.9,118.6,31.1,116.9,31.1,114.1z M43.7,113.9v-6.3c-9,1.6-11,3.8-11,6.4c0,2.1,1.4,3.2,3.6,3.2C39.1,117.2,41.6,116,43.7,113.9z"
	/>
<path class="st0" d="M51.1,92.4h1.7v17.9l9.5-10.4h2.1l-6,6.4l6.8,12h-1.9l-6.1-10.7l-4.4,4.7v6h-1.7V92.4z"/>
<path class="st0" d="M67.4,109.1c0-6.4,3.9-9.6,7.8-9.6c4.3,0,7.3,3.6,7.3,9.4v0.2H69.1c0,5,2.8,8,6.2,8c2.9,0,4.5-1.4,5.9-3.8
	l1.2,0.8c-1.5,2.8-3.7,4.5-7.2,4.5C71,118.7,67.4,115.2,67.4,109.1z M80.7,107.8c-0.2-3.8-2-6.8-5.6-6.8c-2.9,0-5.6,2.2-6.1,6.8
	H80.7z"/>
<path class="st0" d="M87.3,92.4H89V103c2-1.9,4.4-3.4,7.1-3.4c3.8,0,5.6,2.1,5.6,5.4v13.3H100v-13.1c0-2.8-1.2-4.2-4-4.2
	c-2.6,0-4.7,1.3-7,3.5v13.8h-1.7V92.4z"/>
<path class="st0" d="M106.3,109.1c0-5.9,3.5-9.6,8.1-9.6c4.5,0,8.1,3.7,8.1,9.6c0,5.8-3.6,9.6-8.1,9.6S106.3,115,106.3,109.1z
	 M120.8,109.1c0-4.3-2.2-8.1-6.4-8.1c-4,0-6.4,3.5-6.4,8.1c0,4.3,2.2,8.1,6.4,8.1C118.4,117.2,120.8,113.8,120.8,109.1z"/>
<path class="st0" d="M127.5,92.4h1.7v25.9h-1.7V92.4z"/>
<path class="st0" d="M134.3,109.1c0-6.4,3.5-9.6,7.8-9.6c2.5,0,4.7,1.4,6.2,3.1V92.4h1.7v21.4c0,2.2,0.1,3.6,0.6,4.6h-1.8
	c-0.2-0.7-0.4-1.8-0.4-2.8c-1.6,1.6-3.5,3.1-6.3,3.1C137.8,118.6,134.3,115.6,134.3,109.1z M148.3,113.9v-9.6
	c-2.1-2.1-3.9-3.3-6.3-3.3c-3.2,0-6,2.5-6,8.1c0,5.6,2.8,8.1,6.1,8.1C144.5,117.2,146.2,116,148.3,113.9z"/>
<path class="st0" d="M154.8,109.1c0-6.4,3.9-9.6,7.8-9.6c4.3,0,7.3,3.6,7.3,9.4v0.2h-13.4c0,5,2.8,8,6.2,8c2.9,0,4.5-1.4,5.9-3.8
	l1.2,0.8c-1.5,2.8-3.7,4.5-7.2,4.5C158.4,118.7,154.8,115.2,154.8,109.1z M168.1,107.8c-0.2-3.8-2-6.8-5.6-6.8
	c-2.9,0-5.6,2.2-6.1,6.8H168.1z"/>
<path class="st0" d="M174.7,99.9h1.7v3.9h0.1c1.5-2.4,3.9-4.2,7.6-4.2h0.5l-0.3,1.6h-0.6c-3.1,0-5.7,1.8-7.2,5.1v12.1h-1.7V99.9z"/>
<path class="st0" d="M194.8,109.1c0-6.4,3.8-9.6,7.9-9.6c3.7,0,5.7,2.3,6.8,4.9l-1.4,0.8c-1.1-2.6-2.6-4.2-5.5-4.2
	c-2.8,0-6.2,2.1-6.2,8.1c0,5.1,2.8,8.1,6.1,8.1c2.8,0,4.3-1.4,5.7-4.2l1.3,0.7c-1.5,3.2-3.6,5-7.1,5
	C198.3,118.7,194.8,115,194.8,109.1z"/>
<path class="st0" d="M212.8,109.1c0-5.9,3.5-9.6,8.1-9.6c4.5,0,8.1,3.7,8.1,9.6c0,5.8-3.6,9.6-8.1,9.6S212.8,115,212.8,109.1z
	 M227.3,109.1c0-4.3-2.2-8.1-6.4-8.1c-4,0-6.4,3.5-6.4,8.1c0,4.3,2.2,8.1,6.4,8.1C224.9,117.2,227.3,113.8,227.3,109.1z"/>
<path class="st0" d="M233.8,99.9h1.7v3c2-1.9,4.2-3.4,6.9-3.4c3.1,0,4.6,1.4,5.1,3.5c2.1-1.9,4.4-3.5,7.1-3.5c3.8,0,5.3,2.1,5.3,5.4
	v13.3h-1.7v-13.1c0-2.8-1-4.2-3.8-4.2c-2.4,0-4.4,1.3-6.7,3.5v13.8H246v-13.1c0-2.8-1-4.2-3.8-4.2c-2.4,0-4.4,1.3-6.7,3.5v13.8h-1.7
	V99.9z"/>
<path class="st0" d="M265.6,99.9h1.7v3c2-1.9,4.2-3.4,6.9-3.4c3.1,0,4.6,1.4,5.1,3.5c2.1-1.9,4.4-3.5,7.1-3.5c3.8,0,5.3,2.1,5.3,5.4
	v13.3h-1.7v-13.1c0-2.8-1-4.2-3.8-4.2c-2.4,0-4.4,1.3-6.7,3.5v13.8h-1.7v-13.1c0-2.8-1-4.2-3.8-4.2c-2.4,0-4.4,1.3-6.7,3.5v13.8
	h-1.7V99.9z"/>
<path class="st0" d="M297.3,113.3V99.9h1.7v13.1c0,2.8,1.2,4.2,4,4.2c2.6,0,4.7-1.3,7-3.5V99.9h1.7v18.4H310v-3
	c-2,1.9-4.4,3.4-7.1,3.4C299,118.7,297.3,116.6,297.3,113.3z"/>
<path class="st0" d="M317.5,99.9h1.7v3c2-1.9,4.4-3.4,7.1-3.4c3.8,0,5.6,2.1,5.6,5.4v13.3h-1.7v-13.1c0-2.8-1.2-4.2-4-4.2
	c-2.6,0-4.7,1.3-7,3.5v13.8h-1.7V99.9z"/>
<path class="st0" d="M337.7,93.1h1.8v2.1h-1.8V93.1z M337.8,99.9h1.7v18.4h-1.7V99.9z"/>
<path class="st0" d="M344.5,109.1c0-6.4,3.8-9.6,7.9-9.6c3.7,0,5.7,2.3,6.8,4.9l-1.4,0.8c-1.1-2.6-2.6-4.2-5.5-4.2s-6.2,2.1-6.2,8.1
	c0,5.1,2.8,8.1,6.1,8.1c2.8,0,4.3-1.4,5.7-4.2l1.3,0.7c-1.5,3.2-3.6,5-7.1,5C348,118.7,344.5,115,344.5,109.1z"/>
<path class="st0" d="M362.5,114.1c0-3.5,3-6.1,12.6-7.7v-1.1c0-2.8-1.5-4.2-4-4.2c-3,0-5.1,1.2-7.1,3l-1-1c2.3-2.1,4.6-3.5,8.2-3.5
	c3.8,0,5.6,2.2,5.6,5.6v8.6c0,2.2,0.1,3.6,0.5,4.6h-1.8c-0.2-0.8-0.4-1.7-0.4-2.7c-2.2,1.9-4.7,3-7.5,3
	C364.3,118.6,362.5,116.9,362.5,114.1z M375.2,113.9v-6.3c-9,1.6-11,3.8-11,6.4c0,2.1,1.4,3.2,3.6,3.2
	C370.6,117.2,373.1,116,375.2,113.9z"/>
<path class="st0" d="M383.7,114.2v-12.8h-3.2v-1.5h3.2v-6.7h1.7v6.7h4.8v1.5h-4.8V114c0,2,0.7,3.1,3,3.1c0.7,0,1.4-0.1,1.9-0.2v1.6
	c-0.6,0.1-1.3,0.2-2.1,0.2C385.2,118.6,383.7,117.3,383.7,114.2z"/>
<path class="st0" d="M394.9,93.1h1.8v2.1h-1.8V93.1z M395,99.9h1.7v18.4H395V99.9z"/>
<path class="st0" d="M401.7,109.1c0-5.9,3.5-9.6,8.1-9.6c4.5,0,8.1,3.7,8.1,9.6c0,5.8-3.6,9.6-8.1,9.6S401.7,115,401.7,109.1z
	 M416.2,109.1c0-4.3-2.2-8.1-6.4-8.1c-4,0-6.4,3.5-6.4,8.1c0,4.3,2.2,8.1,6.4,8.1C413.7,117.2,416.2,113.8,416.2,109.1z"/>
<path class="st0" d="M422.7,99.9h1.7v3c2-1.9,4.4-3.4,7.1-3.4c3.8,0,5.6,2.1,5.6,5.4v13.3h-1.7v-13.1c0-2.8-1.2-4.2-4-4.2
	c-2.6,0-4.7,1.3-7,3.5v13.8h-1.7V99.9z"/>
<path class="st0" d="M441.5,115.2l1.2-0.9c1.4,1.8,3.1,2.9,5.7,2.9c3.5,0,5.2-1.4,5.2-3.6s-1.3-3.2-5.5-4.2
	c-4.7-1.2-6.2-2.4-6.2-5.2c0-2.3,2.1-4.6,6.1-4.6c3,0,5,1.1,6.5,2.7l-1.1,1.2c-1.4-1.5-3-2.4-5.4-2.4c-3,0-4.3,1.5-4.3,3
	c0,1.9,1,2.8,4.7,3.6c5.2,1.3,7,2.5,7,5.8c0,3.2-2.8,5.1-7,5.1C445.1,118.6,442.8,117.2,441.5,115.2z"/>
<path class="st0" d="M1.9,160.1c0-3.5,3-6.1,12.6-7.7v-1.1c0-2.8-1.5-4.2-4-4.2c-3,0-5.1,1.2-7.1,3l-1-1c2.3-2.1,4.6-3.5,8.2-3.5
	c3.8,0,5.6,2.2,5.6,5.6v8.6c0,2.2,0.1,3.6,0.5,4.6h-1.8c-0.2-0.8-0.4-1.7-0.4-2.7c-2.2,1.9-4.7,3-7.5,3
	C3.7,164.6,1.9,162.9,1.9,160.1z M14.5,159.9v-6.3c-9,1.6-11,3.8-11,6.4c0,2.1,1.4,3.2,3.6,3.2C9.9,163.2,12.4,162,14.5,159.9z"/>
<path class="st0" d="M21.8,145.9h1.7v3c2-1.9,4.4-3.4,7.1-3.4c3.8,0,5.6,2.1,5.6,5.4v13.3h-1.7v-13.1c0-2.8-1.2-4.2-4-4.2
	c-2.6,0-4.7,1.3-7,3.5v13.8h-1.7V145.9z"/>
<path class="st0" d="M40.9,155.1c0-6.4,3.5-9.6,7.8-9.6c2.5,0,4.7,1.4,6.2,3.1v-10.2h1.7v21.4c0,2.2,0.1,3.6,0.6,4.6h-1.8
	c-0.2-0.7-0.4-1.8-0.4-2.8c-1.6,1.6-3.5,3.1-6.3,3.1C44.3,164.6,40.9,161.6,40.9,155.1z M54.8,159.9v-9.6c-2.1-2.1-3.9-3.3-6.3-3.3
	c-3.2,0-6,2.5-6,8.1c0,5.6,2.8,8.1,6.1,8.1C51.1,163.2,52.8,162,54.8,159.9z"/>
<path class="st0" d="M71.6,161.6v2.7H70v-25.9h1.7v10.3c1.6-1.7,3.5-3.1,6.3-3.1c4.2,0,7.7,3.1,7.7,9.6c0,6.4-3.5,9.5-7.8,9.5
	C75.3,164.6,73.4,163.3,71.6,161.6z M83.9,155.1c0-5.6-2.8-8.1-6.1-8.1c-2.5,0-4.2,1.2-6.2,3.3v9.6c2.1,2.1,3.9,3.3,6.3,3.3
	C81.2,163.2,83.9,160.8,83.9,155.1z"/>
<path class="st0" d="M89.4,155.1c0-6.4,3.9-9.6,7.8-9.6c4.3,0,7.3,3.6,7.3,9.4v0.2H91.1c0,5,2.8,8,6.2,8c2.9,0,4.5-1.4,5.9-3.8
	l1.2,0.8c-1.5,2.8-3.7,4.5-7.2,4.5C93,164.7,89.4,161.2,89.4,155.1z M102.8,153.8c-0.2-3.8-2-6.8-5.6-6.8c-2.9,0-5.6,2.2-6.1,6.8
	H102.8z"/>
<path class="st0" d="M106.4,171l0.4-1.4c0.5,0.1,1.2,0.2,2.3,0.2c2.2,0,3.3-1,4.1-3.2l0.9-2.3l-7.1-18.5h1.9l6.1,16.3h0.1l6.1-16.3
	h1.8l-7.9,20.5c-1.3,3.3-2.6,4.8-6.1,4.8C107.8,171.3,107.1,171.2,106.4,171z"/>
<path class="st0" d="M124.9,155.1c0-5.9,3.5-9.6,8.1-9.6c4.5,0,8.1,3.7,8.1,9.6c0,5.8-3.6,9.6-8.1,9.6S124.9,161,124.9,155.1z
	 M139.4,155.1c0-4.3-2.2-8.1-6.4-8.1c-4,0-6.4,3.5-6.4,8.1c0,4.3,2.2,8.1,6.4,8.1C136.9,163.2,139.4,159.8,139.4,155.1z"/>
<path class="st0" d="M145.9,145.9h1.7v3c2-1.9,4.4-3.4,7.1-3.4c3.8,0,5.6,2.1,5.6,5.4v13.3h-1.7v-13.1c0-2.8-1.2-4.2-4-4.2
	c-2.6,0-4.7,1.3-7,3.5v13.8h-1.7V145.9z"/>
<path class="st0" d="M164.9,155.1c0-6.4,3.5-9.6,7.8-9.6c2.5,0,4.7,1.4,6.2,3.1v-10.2h1.7v21.4c0,2.2,0.1,3.6,0.6,4.6h-1.8
	c-0.2-0.7-0.4-1.8-0.4-2.8c-1.6,1.6-3.5,3.1-6.3,3.1C168.4,164.6,164.9,161.6,164.9,155.1z M178.9,159.9v-9.6
	c-2.1-2.1-3.9-3.3-6.3-3.3c-3.2,0-6,2.5-6,8.1c0,5.6,2.8,8.1,6.1,8.1C175.1,163.2,176.8,162,178.9,159.9z"/>
<path class="st1" d="M1.2,10.5c0-4.9,2.7-8,6.6-8c2.9,0,4.9,1.6,5.8,4.8l-1.7,0.4c-0.7-2.5-1.9-3.5-4.1-3.5C5.3,4.2,3,6.1,3,10.5
	c0,4.3,2,6.5,4.8,6.5c2.4,0,4.1-1.6,4.1-4.5H8.3v-1.6h5.4v7.4h-1.6V16h0c-0.6,1.3-2,2.6-4.4,2.6C3.4,18.7,1.2,15.2,1.2,10.5z"/>
<path class="st1" d="M17.2,2.8h9.5v1.7h-7.7v4.9h5.7V11h-5.7v5.6h8.1v1.7h-10V2.8z"/>
<path class="st2" d="M1.5,232h1.3l1.6,6.4c0.3,1,0.5,1.9,0.6,2.7h0c0.2-0.8,0.4-1.7,0.6-2.7l1.5-6.4h1.3l1.6,6.5
	c0.2,1,0.5,1.8,0.6,2.7h0c0.2-0.9,0.4-1.6,0.6-2.6l1.6-6.5h1.3l-2.9,11.1h-1.2L8,233.8h0l-2.3,9.3H4.5L1.5,232z"/>
<path class="st2" d="M15,241.2c0-1.6,1.4-2.7,5.3-3.3v-0.4c0-1-0.5-1.5-1.5-1.5c-1.2,0-2.1,0.5-2.9,1.2l-0.7-0.8
	c0.9-0.8,2.1-1.5,3.7-1.5c1.9,0,2.6,1,2.6,2.6v3.5c0,1,0.1,1.5,0.2,1.9h-1.3c-0.1-0.3-0.2-0.6-0.2-1.1c-0.9,0.8-1.9,1.2-3.1,1.2
	C15.9,243.2,15,242.5,15,241.2z M20.3,241v-2.2c-3,0.5-4,1.2-4,2.2c0,0.8,0.5,1.2,1.3,1.2C18.7,242.2,19.6,241.7,20.3,241z"/>
<path class="st2" d="M24.5,241.1v-4.9h-1.4v-1.1h1.4v-2.8h1.3v2.8h2.1v1.1h-2.1v4.6c0,0.8,0.3,1.3,1.2,1.3c0.3,0,0.6,0,0.8-0.1v1.1
	c-0.2,0-0.7,0.1-1.1,0.1C25.1,243.2,24.5,242.5,24.5,241.1z"/>
<path class="st2" d="M29.2,239.1c0-2.9,1.9-4.1,3.6-4.1c1.8,0,2.6,1,3.1,2.2l-1.1,0.5c-0.4-1-1-1.6-2-1.6c-1.1,0-2.3,0.8-2.3,3
	c0,2,0.9,3,2.3,3c1,0,1.6-0.4,2.1-1.6L36,241c-0.6,1.3-1.5,2.2-3.2,2.2C30.9,243.2,29.2,241.8,29.2,239.1z"/>
<path class="st2" d="M37.8,232h1.3v4.4c0.7-0.7,1.7-1.3,3-1.3c1.5,0,2.3,0.9,2.3,2.4v5.7h-1.3v-5.4c0-1-0.5-1.5-1.5-1.5
	c-0.9,0-1.7,0.5-2.6,1.3v5.7h-1.3V232z"/>
<path class="st2" d="M50,239.1c0-2.9,1.9-4.1,3.6-4.1c1.8,0,2.6,1,3.1,2.2l-1.1,0.5c-0.4-1-1-1.6-2-1.6c-1.1,0-2.3,0.8-2.3,3
	c0,2,0.9,3,2.3,3c1,0,1.6-0.4,2.1-1.6l1.1,0.4c-0.6,1.3-1.5,2.2-3.2,2.2C51.7,243.2,50,241.8,50,239.1z"/>
<path class="st2" d="M58.1,241.2c0-1.6,1.4-2.7,5.3-3.3v-0.4c0-1-0.5-1.5-1.5-1.5c-1.2,0-2.1,0.5-2.9,1.2l-0.7-0.8
	c0.9-0.8,2.1-1.5,3.7-1.5c1.9,0,2.6,1,2.6,2.6v3.5c0,1,0.1,1.5,0.2,1.9h-1.3c-0.1-0.3-0.2-0.6-0.2-1.1c-0.9,0.8-1.9,1.2-3.1,1.2
	C58.9,243.2,58.1,242.5,58.1,241.2z M63.4,241v-2.2c-3,0.5-4,1.2-4,2.2c0,0.8,0.5,1.2,1.3,1.2C61.7,242.2,62.6,241.7,63.4,241z"/>
<path class="st2" d="M66.4,241.9l0.8-0.8c0.6,0.6,1.4,1.1,2.5,1.1c1.2,0,1.9-0.4,1.9-1.2c0-0.8-0.7-1.1-2-1.4
	c-1.7-0.4-2.8-0.9-2.8-2.4c0-1.2,1.1-2.2,2.8-2.2c1.4,0,2.3,0.4,3,1.1l-0.7,0.9c-0.6-0.6-1.4-0.9-2.3-0.9c-1.2,0-1.6,0.5-1.6,1.1
	c0,0.7,0.6,1,1.9,1.3c1.8,0.4,3,0.9,3,2.5c0,1.5-1.4,2.3-3.2,2.3C68.2,243.2,67.1,242.6,66.4,241.9z"/>
<path class="st2" d="M74.2,239.1c0-2.9,1.9-4.1,3.6-4.1c1.9,0,3.3,1.3,3.3,4.2v0.3h-5.6c0,1.8,1.1,2.7,2.4,2.7
	c1.1,0,1.8-0.5,2.4-1.3l0.8,0.7c-0.7,1.1-1.7,1.7-3.2,1.7C76,243.2,74.2,241.9,74.2,239.1z M79.9,238.4c-0.1-1.4-0.8-2.4-2.1-2.4
	c-1.1,0-2.1,0.7-2.2,2.4H79.9z"/>
<path class="st2" d="M86.2,241.9l0.8-0.8c0.6,0.6,1.4,1.1,2.5,1.1c1.2,0,1.9-0.4,1.9-1.2c0-0.8-0.7-1.1-2-1.4
	c-1.7-0.4-2.8-0.9-2.8-2.4c0-1.2,1.1-2.2,2.8-2.2c1.4,0,2.3,0.4,3,1.1l-0.7,0.9c-0.6-0.6-1.4-0.9-2.3-0.9c-1.2,0-1.6,0.5-1.6,1.1
	c0,0.7,0.6,1,1.9,1.3c1.8,0.4,3,0.9,3,2.5c0,1.5-1.4,2.3-3.2,2.3C88,243.2,86.9,242.6,86.2,241.9z"/>
<path class="st2" d="M95,241.1v-4.9h-1.4v-1.1H95v-2.8h1.3v2.8h2.1v1.1h-2.1v4.6c0,0.8,0.3,1.3,1.2,1.3c0.3,0,0.6,0,0.8-0.1v1.1
	c-0.2,0-0.7,0.1-1.1,0.1C95.6,243.2,95,242.5,95,241.1z"/>
<path class="st2" d="M100.2,240.9v-5.7h1.3v5.4c0,1.1,0.5,1.5,1.5,1.5c1,0,1.7-0.5,2.6-1.3v-5.7h1.3v7.9h-1.3v-1.2
	c-0.7,0.7-1.7,1.3-3,1.3C101,243.2,100.2,242.4,100.2,240.9z"/>
<path class="st2" d="M108.8,239.1c0-2.8,1.4-4.1,3.4-4.1c1,0,1.9,0.5,2.5,1.2V232h1.3v9.1c0,1,0.1,1.5,0.2,1.9h-1.3
	c-0.1-0.3-0.2-0.7-0.2-1.1c-0.6,0.7-1.4,1.2-2.6,1.2C110.2,243.2,108.8,241.9,108.8,239.1z M114.6,240.9v-3.6
	c-0.7-0.8-1.4-1.2-2.3-1.2c-1.4,0-2.3,1-2.3,3.1c0,2,1,3,2.2,3C113.3,242.1,114,241.6,114.6,240.9z"/>
<path class="st2" d="M117.3,245.9l0.3-1c0.2,0.1,0.6,0.1,1.2,0.1c0.8,0,1.2-0.3,1.5-1.1l0.3-0.8l-3.1-8h1.4l2.3,6.4h0l2.3-6.4h1.3
	l-3.4,8.8c-0.5,1.4-1.2,2.1-2.7,2.1C118.1,246.1,117.7,246,117.3,245.9z"/>
<line class="st3" x1="150.9" y1="238.1" x2="132.7" y2="238.1"/>
<polyline class="st3" points="145.7,232.7 151,238.1 145.7,243.4 "/>
</svg>
