<?xml version="1.0" encoding="utf-8"?>
<!-- Generator: Adobe Illustrator 21.1.0, SVG Export Plug-In . SVG Version: 6.00 Build 0)  -->
<svg version="1.1" id="Layer_1" xmlns="http://www.w3.org/2000/svg" xmlns:xlink="http://www.w3.org/1999/xlink" x="0px" y="0px"
	 viewBox="0 0 616.2 39.4" style="enable-background:new 0 0 616.2 39.4;" xml:space="preserve">
<style type="text/css">
	.st0{fill:#818182;}
	.st1{fill:#F15C22;}
</style>
<path class="st0" d="M181.2,17.8h1.1l2.7,10.5c0.4,1.6,0.8,3.1,1,4.2h0c0.2-1,0.6-2.6,1-4.2l2.6-10.5h1.3l2.6,10.6
	c0.4,1.5,0.7,2.9,1,4.1h0c0.3-1.3,0.6-2.5,1-4l2.8-10.6h1.1l-4.3,16.3h-1.1l-3.7-14.8h0l-3.7,14.8h-1.1L181.2,17.8z"/>
<path class="st0" d="M200.1,28.3c0-3.7,2.2-6,5.1-6c2.8,0,5.1,2.3,5.1,6c0,3.7-2.2,6-5.1,6S200.1,32,200.1,28.3z M209.2,28.3
	c0-2.7-1.4-5.1-4-5.1c-2.5,0-4,2.2-4,5.1c0,2.7,1.4,5.1,4,5.1C207.7,33.4,209.2,31.2,209.2,28.3z"/>
<path class="st0" d="M213.3,22.5h1.1v2.4h0c1-1.5,2.4-2.7,4.8-2.7h0.3l-0.2,1h-0.4c-2,0-3.6,1.1-4.6,3.2v7.6h-1.1V22.5z"/>
<path class="st0" d="M221.9,17.8h1.1V29l6-6.5h1.3l-3.8,4l4.3,7.5h-1.2l-3.9-6.7l-2.8,2.9v3.8h-1.1V17.8z"/>
<path class="st0" d="M270.8,25.8c0-4.7,2.6-8.4,6.6-8.4c3.1,0,5,1.9,5.7,4.9l-1.1,0.2c-0.8-2.8-2.1-4.2-4.7-4.2
	c-3.3,0-5.5,3-5.5,7.3c0,4.8,2.2,7.6,5.5,7.6c2.6,0,4.2-1.5,5-4.4l1,0.2c-0.8,3.2-2.9,5.1-6,5.1C273.3,34.4,270.8,30.9,270.8,25.8z"
	/>
<path class="st0" d="M285.8,31.4c0-2.2,1.9-3.9,7.9-4.9v-0.7c0-1.8-0.9-2.6-2.5-2.6c-1.9,0-3.2,0.7-4.5,1.9l-0.6-0.7
	c1.4-1.3,2.9-2.2,5.1-2.2c2.4,0,3.5,1.4,3.5,3.5v5.4c0,1.4,0.1,2.3,0.3,2.9H294c-0.2-0.5-0.3-1.1-0.3-1.7c-1.4,1.2-2.9,1.9-4.7,1.9
	C286.9,34.3,285.8,33.2,285.8,31.4z M293.7,31.3v-4c-5.6,1-6.9,2.4-6.9,4c0,1.3,0.9,2,2.3,2C290.8,33.3,292.4,32.6,293.7,31.3z"/>
<path class="st0" d="M298.3,22.5h1.1v1.7c1-1,2.2-1.9,3.9-1.9c2.7,0,4.8,2,4.8,6c0,4-2.2,6-4.9,6c-1.6,0-2.8-0.8-3.9-1.9v6.1h-1.1
	V22.5z M307.1,28.3c0-3.5-1.8-5.1-3.8-5.1c-1.6,0-2.6,0.7-3.9,2.1v6c1.3,1.3,2.5,2.1,4,2.1C305.4,33.3,307.1,31.8,307.1,28.3z"/>
<path class="st0" d="M310.3,31.4c0-2.2,1.9-3.9,7.9-4.9v-0.7c0-1.8-0.9-2.6-2.5-2.6c-1.9,0-3.2,0.7-4.5,1.9l-0.6-0.7
	c1.4-1.3,2.9-2.2,5.1-2.2c2.4,0,3.5,1.4,3.5,3.5v5.4c0,1.4,0.1,2.3,0.3,2.9h-1.1c-0.2-0.5-0.3-1.1-0.3-1.7c-1.4,1.2-2.9,1.9-4.7,1.9
	C311.5,34.3,310.3,33.2,310.3,31.4z M318.3,31.3v-4c-5.6,1-6.9,2.4-6.9,4c0,1.3,0.9,2,2.3,2C315.4,33.3,317,32.6,318.3,31.3z"/>
<path class="st0" d="M324,32.4v1.7h-1.1V17.8h1.1v6.5c1-1.1,2.2-2,3.9-2c2.7,0,4.8,2,4.8,6c0,4-2.2,6-4.9,6
	C326.3,34.3,325.1,33.5,324,32.4z M331.7,28.3c0-3.5-1.8-5.1-3.8-5.1c-1.6,0-2.6,0.7-3.9,2.1v6c1.3,1.3,2.5,2.1,4,2.1
	C329.9,33.3,331.7,31.8,331.7,28.3z"/>
<path class="st0" d="M335.9,18.2h1.1v1.3h-1.1V18.2z M335.9,22.5h1.1v11.6h-1.1V22.5z"/>
<path class="st0" d="M340.9,17.8h1.1v16.3h-1.1V17.8z"/>
<path class="st0" d="M345.9,18.2h1.1v1.3h-1.1V18.2z M346,22.5h1.1v11.6H346V22.5z"/>
<path class="st0" d="M351.6,31.5v-8h-2v-0.9h2v-4.2h1.1v4.2h3v0.9h-3v7.9c0,1.2,0.4,1.9,1.9,1.9c0.4,0,0.9,0,1.2-0.2v1
	c-0.4,0.1-0.8,0.1-1.3,0.1C352.5,34.2,351.6,33.5,351.6,31.5z"/>
<path class="st0" d="M358.6,18.2h1.1v1.3h-1.1V18.2z M358.7,22.5h1.1v11.6h-1.1V22.5z"/>
<path class="st0" d="M362.9,28.3c0-4,2.4-6,4.9-6c2.7,0,4.6,2.3,4.6,5.9v0.2H364c0,3.1,1.7,5,3.9,5c1.8,0,2.8-0.9,3.7-2.4l0.8,0.5
	c-0.9,1.7-2.3,2.8-4.6,2.8C365.2,34.3,362.9,32.1,362.9,28.3z M371.3,27.5c-0.2-2.4-1.3-4.3-3.5-4.3c-1.8,0-3.5,1.4-3.8,4.3H371.3z"
	/>
<path class="st0" d="M374.4,32.1l0.8-0.6c0.9,1.1,1.9,1.8,3.6,1.8c2.2,0,3.3-0.9,3.3-2.3s-0.8-2-3.4-2.6c-2.9-0.7-3.9-1.5-3.9-3.3
	c0-1.5,1.3-2.9,3.8-2.9c1.9,0,3.1,0.7,4.1,1.7l-0.7,0.7c-0.9-0.9-1.9-1.5-3.4-1.5c-1.9,0-2.7,0.9-2.7,1.9c0,1.2,0.7,1.7,2.9,2.3
	c3.3,0.8,4.4,1.6,4.4,3.7c0,2-1.8,3.2-4.4,3.2C376.7,34.3,375.2,33.3,374.4,32.1z"/>
<path class="st0" d="M423.7,25.8c0-4.7,2.6-8.4,6.6-8.4c3.1,0,5,1.9,5.7,4.9l-1.1,0.2c-0.8-2.8-2.1-4.2-4.7-4.2
	c-3.3,0-5.5,3-5.5,7.3c0,4.8,2.2,7.6,5.5,7.6c2.6,0,4.2-1.5,5-4.4l1,0.2c-0.8,3.2-2.9,5.1-6,5.1C426.3,34.4,423.7,30.9,423.7,25.8z"
	/>
<path class="st0" d="M439.3,30.9v-8.4h1.1v8.3c0,1.8,0.8,2.6,2.5,2.6c1.6,0,2.9-0.8,4.4-2.2v-8.7h1.1v11.6h-1.1v-1.9
	c-1.3,1.2-2.8,2.2-4.5,2.2C440.4,34.3,439.3,33,439.3,30.9z"/>
<path class="st0" d="M452.2,17.8h1.1v16.3h-1.1V17.8z"/>
<path class="st0" d="M457.8,31.5v-8h-2v-0.9h2v-4.2h1.1v4.2h3v0.9h-3v7.9c0,1.2,0.4,1.9,1.9,1.9c0.4,0,0.9,0,1.2-0.2v1
	c-0.4,0.1-0.8,0.1-1.3,0.1C458.7,34.2,457.8,33.5,457.8,31.5z"/>
<path class="st0" d="M464.6,30.9v-8.4h1.1v8.3c0,1.8,0.8,2.6,2.5,2.6c1.6,0,2.9-0.8,4.4-2.2v-8.7h1.1v11.6h-1.1v-1.9
	c-1.3,1.2-2.8,2.2-4.5,2.2C465.7,34.3,464.6,33,464.6,30.9z"/>
<path class="st0" d="M477.4,22.5h1.1v2.4h0c1-1.5,2.4-2.7,4.8-2.7h0.3l-0.2,1H483c-2,0-3.6,1.1-4.6,3.2v7.6h-1.1V22.5z"/>
<path class="st0" d="M484.6,28.3c0-4,2.4-6,4.9-6c2.7,0,4.6,2.3,4.6,5.9v0.2h-8.4c0,3.1,1.7,5,3.9,5c1.8,0,2.8-0.9,3.7-2.4l0.8,0.5
	c-0.9,1.7-2.3,2.8-4.6,2.8C486.8,34.3,484.6,32.1,484.6,28.3z M493,27.5c-0.2-2.4-1.3-4.3-3.5-4.3c-1.8,0-3.5,1.4-3.8,4.3H493z"/>
<path class="st0" d="M534.6,25.8c0-4.7,2.6-8.4,6.6-8.4c3.1,0,5,1.9,5.7,4.9l-1.1,0.2c-0.8-2.8-2.1-4.2-4.7-4.2
	c-3.3,0-5.5,3-5.5,7.3c0,4.8,2.2,7.6,5.5,7.6c2.6,0,4.2-1.5,5-4.4l1,0.2c-0.8,3.2-2.9,5.1-6,5.1C537.2,34.4,534.6,30.9,534.6,25.8z"
	/>
<path class="st0" d="M549.5,28.3c0-3.7,2.2-6,5.1-6c2.8,0,5.1,2.3,5.1,6c0,3.7-2.2,6-5.1,6C551.7,34.3,549.5,32,549.5,28.3z
	 M558.6,28.3c0-2.7-1.4-5.1-4-5.1c-2.5,0-4,2.2-4,5.1c0,2.7,1.4,5.1,4,5.1C557,33.4,558.6,31.2,558.6,28.3z"/>
<path class="st0" d="M562.7,22.5h1.1v1.9c1.3-1.2,2.8-2.2,4.5-2.2c2.4,0,3.5,1.3,3.5,3.4v8.4h-1.1v-8.3c0-1.8-0.8-2.6-2.5-2.6
	c-1.6,0-2.9,0.8-4.4,2.2v8.7h-1.1V22.5z"/>
<path class="st0" d="M576,31.5v-8h-2v-0.9h2v-4.2h1.1v4.2h3v0.9h-3v7.9c0,1.2,0.4,1.9,1.9,1.9c0.4,0,0.9,0,1.2-0.2v1
	c-0.4,0.1-0.8,0.1-1.3,0.1C576.9,34.2,576,33.5,576,31.5z"/>
<path class="st0" d="M582.2,31.4c0-2.2,1.9-3.9,7.9-4.9v-0.7c0-1.8-0.9-2.6-2.5-2.6c-1.9,0-3.2,0.7-4.5,1.9l-0.6-0.7
	c1.4-1.3,2.9-2.2,5.1-2.2c2.4,0,3.5,1.4,3.5,3.5v5.4c0,1.4,0.1,2.3,0.3,2.9h-1.1c-0.2-0.5-0.3-1.1-0.3-1.7c-1.4,1.2-2.9,1.9-4.7,1.9
	C583.3,34.3,582.2,33.2,582.2,31.4z M590.1,31.3v-4c-5.6,1-6.9,2.4-6.9,4c0,1.3,0.9,2,2.3,2C587.2,33.3,588.8,32.6,590.1,31.3z"/>
<path class="st0" d="M594.1,28.3c0-4,2.4-6,5-6c2.3,0,3.6,1.4,4.3,3.1l-0.9,0.5c-0.7-1.7-1.7-2.6-3.4-2.6s-3.9,1.3-3.9,5.1
	c0,3.2,1.7,5.1,3.9,5.1c1.8,0,2.7-0.9,3.6-2.7l0.8,0.4c-1,2-2.3,3.2-4.5,3.2C596.3,34.3,594.1,32,594.1,28.3z"/>
<path class="st0" d="M607,31.5v-8h-2v-0.9h2v-4.2h1.1v4.2h3v0.9h-3v7.9c0,1.2,0.4,1.9,1.9,1.9c0.4,0,0.9,0,1.2-0.2v1
	c-0.4,0.1-0.8,0.1-1.3,0.1C608,34.2,607,33.5,607,31.5z"/>
<path class="st1" d="M115.4,33.2h3.2V16.8h-3.2v-0.6h6.6v4.3h0.1c0.7-1.4,1.9-4.7,6.2-4.8c3.3,0,6.1,1.7,6.1,5.5v12h3.2v0.6h-9.8
	v-0.6h3.2V20c0-2.1-0.9-3.6-3.1-3.6c-3.2,0-5.7,3.3-5.7,7.6v9.2h3.2v0.6h-9.8V33.2z"/>
<path class="st1" d="M0.5,33.2H4L14.5,3.9h0.9l11.1,29.3h3.2v0.6H17.2v-0.6h4.6l-4.3-11.4H8.8l-4,11.4h4.6v0.6H0.5V33.2z M13,10.1
	L9,21.3h8.3L13,10.1z"/>
<path class="st1" d="M38.7,4.3h6.7v28.9h3.2v0.6h-6.6v-3.6h-0.1c-0.4,1.3-1.2,4.1-4.9,4.1c-4.8,0-8.3-4.2-8.3-9.5
	c0-5.2,3.3-9.2,8-9.2c3,0,4.4,1.7,5.1,3.8h0.1V4.9h-3.2V4.3z M36.9,33.9c4.1,0.1,4.9-4.5,4.9-8.1c0-4.2-0.3-6.4-1.5-7.8
	c-0.8-1-1.6-1.7-3.6-1.7c-3.8,0-4.3,3.2-4.3,8.2C32.4,30.1,32.4,33.8,36.9,33.9z"/>
<path class="st1" d="M59.4,4.3H66v28.9h3.2v0.6h-6.6v-3.6h-0.1c-0.4,1.3-1.2,4.1-4.9,4.1c-4.8,0-8.3-4.2-8.3-9.5
	c0-5.2,3.3-9.2,8-9.2c3,0,4.4,1.7,5.1,3.8h0.1V4.9h-3.2V4.3z M57.6,33.9c4.1,0.1,4.9-4.5,4.9-8.1c0-4.2-0.3-6.4-1.5-7.8
	c-0.8-1-1.6-1.7-3.6-1.7c-3.8,0-4.3,3.2-4.3,8.2C53.1,30.1,53.1,33.8,57.6,33.9z"/>
<path class="st1" d="M70.1,33.2h3.2V16.8h-3.2v-0.6h6.7v17h3.2v0.6h-9.8V33.2z M75,4.5c1.2,0,2.2,1,2.2,2.2c0,1.2-1,2.2-2.2,2.2
	c-1.2,0-2.2-1-2.2-2.2C72.8,5.5,73.8,4.5,75,4.5z"/>
<path class="st1" d="M106,15.7L106,15.7l-0.3,0v0c-4.3,0.1-8.7,3.7-8.7,9.3c0,5.6,4,9.3,8.7,9.3v0h0.3v0c4.7-0.1,8.7-3.7,8.7-9.3
	C114.6,19.4,110.3,15.8,106,15.7z M105.9,33.8h-0.1c-2.9,0-4.9-1.1-4.9-8.8c0-6.5,1.3-8.7,5-8.8h0.1c3.7,0,5,2.3,5,8.8
	C110.8,32.7,108.8,33.8,105.9,33.8z"/>
<path class="st1" d="M81.9,28H82c2,4.5,3.8,5.9,6.2,5.8c2.2-0.1,3.5-1.3,3.5-3.5c0-1.6-0.7-2.6-4.2-3.7c-3.6-1.2-5.2-2.5-5.2-5.5
	c0-3.3,2.6-5.4,5.5-5.4c1.5,0,2.9,0.5,4.1,1.1l1.1-1.1h0.2v5.7H93c-1.7-4-2.9-5.1-5.3-5.1c-2.2,0-3.8,1.4-3.8,3.2
	c0,1.8,1.4,2.6,4.9,3.7c3.9,1.2,5.7,2.6,5.6,5.6c0,3.4-3,5.6-6.3,5.6c-1.8,0-3.5-0.7-4.7-1.4l-1.3,1.4h-0.2V28z"/>
</svg>
