<?xml version="1.0" encoding="utf-8"?>
<!-- Generator: Adobe Illustrator 16.0.5, SVG Export Plug-In . SVG Version: 6.00 Build 0)  -->
<!DOCTYPE svg PUBLIC "-//W3C//DTD SVG 1.1//EN" "http://www.w3.org/Graphics/SVG/1.1/DTD/svg11.dtd">
<svg version="1.1" id="Layer_1" xmlns="http://www.w3.org/2000/svg" xmlns:xlink="http://www.w3.org/1999/xlink" x="0px" y="0px"
	 width="118.001px" height="26.191px" viewBox="325.251 377.074 118.001 26.191"
	 enable-background="new 325.251 377.074 118.001 26.191" xml:space="preserve">
<path fill="#FF5A00" d="M424.144,402.286h2.703v-14.121h-2.703v-0.513h5.687v3.729h0.093c0.561-1.212,1.679-4.055,5.36-4.146
	c2.796-0.047,5.266,1.444,5.266,4.707v10.299h2.703v0.56h-8.48v-0.513h2.701v-11.371c0-1.816-0.792-3.123-2.655-3.123
	c-2.749,0-4.939,2.844-4.939,6.571v7.97h2.703v0.466h-8.482v-0.513L424.144,402.286L424.144,402.286z"/>
<path fill="#FF5A00" d="M325.251,402.286h3.029l8.995-25.212h0.792l9.554,25.212h2.796v0.513h-10.812v-0.513h3.962l-3.683-9.787
	h-7.503l-3.495,9.787h3.961v0.513h-7.596V402.286L325.251,402.286z M336.017,382.34l-3.448,9.646h7.13L336.017,382.34z"/>
<path fill="#FF5A00" d="M358.106,377.354h5.731v24.933h2.703v0.513h-5.639v-3.076h-0.094c-0.373,1.072-1.024,3.542-4.24,3.542
	c-4.147,0-7.131-3.635-7.131-8.154c0-4.521,2.844-7.923,6.852-7.923c2.562,0,3.775,1.444,4.427,3.263h0.093v-12.583h-2.702V377.354z
	 M356.615,402.845c3.542,0.046,4.193-3.915,4.193-6.99c0-3.635-0.279-5.499-1.258-6.757c-0.699-0.84-1.352-1.492-3.076-1.492
	c-3.262,0-3.728,2.796-3.728,7.083C352.747,399.63,352.7,402.799,356.615,402.845z"/>
<path fill="#FF5A00" d="M375.909,377.354h5.731v24.933h2.703v0.513h-5.686v-3.076h-0.093c-0.373,1.072-1.025,3.542-4.241,3.542
	c-4.147,0-7.13-3.635-7.13-8.154c0-4.521,2.843-7.923,6.851-7.923c2.563,0,3.775,1.444,4.427,3.263h0.094v-12.583h-2.703v-0.512
	h0.047V377.354z M374.417,402.845c3.542,0.046,4.194-3.915,4.194-6.99c0-3.635-0.28-5.499-1.259-6.757
	c-0.698-0.84-1.352-1.492-3.075-1.492c-3.263,0-3.729,2.796-3.729,7.083C370.549,399.63,370.549,402.799,374.417,402.845z"/>
<path fill="#FF5A00" d="M385.183,402.286h2.703v-14.121h-2.703v-0.513h5.732v14.634h2.703v0.513h-8.436V402.286z M389.331,377.586
	c1.025,0,1.864,0.839,1.864,1.864s-0.839,1.864-1.864,1.864c-1.026,0-1.864-0.839-1.864-1.864S388.305,377.586,389.331,377.586z"/>
<path fill="#FF5A00" d="M416.034,387.233L416.034,387.233h-0.232l0,0c-3.729,0.046-7.503,3.169-7.503,8.016s3.401,7.969,7.503,8.016
	l0,0h0.232l0,0c4.055-0.093,7.457-3.216,7.457-8.016C423.491,390.402,419.763,387.28,416.034,387.233z M415.941,402.799h-0.141
	c-2.471,0-4.241-0.933-4.241-7.55c0-5.593,1.118-7.503,4.241-7.55h0.093c3.123,0,4.241,1.957,4.241,7.55
	C420.183,401.866,418.458,402.752,415.941,402.799z"/>
<path fill="#FF5A00" d="M395.343,397.812h0.093c1.771,3.82,3.311,5.078,5.313,4.985c1.863-0.047,3.028-1.072,3.028-3.029
	c0-1.397-0.605-2.189-3.636-3.169c-3.122-1.024-4.474-2.144-4.474-4.753c0-2.797,2.236-4.613,4.707-4.613
	c1.305,0,2.517,0.419,3.495,0.932l0.932-0.932h0.142v4.894h-0.095c-1.49-3.448-2.517-4.381-4.521-4.428
	c-1.864,0-3.262,1.212-3.262,2.796c0,1.538,1.165,2.237,4.193,3.169c3.31,1.025,4.894,2.237,4.848,4.801
	c0,2.937-2.563,4.8-5.406,4.8c-1.585,0-2.982-0.559-4.055-1.165l-1.118,1.165h-0.142v-5.452H395.343L395.343,397.812z"/>
</svg>
